<?xml version="1.0" encoding="utf-8"?>
<!-- Generator: Adobe Illustrator 24.3.0, SVG Export Plug-In . SVG Version: 6.00 Build 0)  -->
<svg version="1.1" id="Capa_1" xmlns="http://www.w3.org/2000/svg" xmlns:xlink="http://www.w3.org/1999/xlink" x="0px" y="0px"
	 viewBox="0 0 670.5 752.1" style="enable-background:new 0 0 670.5 752.1;" xml:space="preserve">
<style type="text/css">
	.st0{fill:#FF00F3;}
	.st1{fill:#AD02AD;}
	.st2{fill:#1C0CCF;}
	.st3{fill:#090684;}
	.st4{fill:#6262E8;}
	.st5{fill:#1AFFD8;}
	.st6{fill:#423EE5;}
	.st7{fill:#9292F4;}
	.st8{fill:#2B3338;}
	.st9{fill:#121416;}
	.st10{fill:none;}
	.st11{enable-background:new    ;}
</style>
<g>
	<g>
		<g>
			<g>
				<g>
					<g>
						<g>
							<g>
								<path class="st0" d="M590.6,341.4c0-141.4-114.6-256-256-256s-256,114.6-256,256c0,75.4,32.6,143.2,84.5,190.1H506
									C558,484.6,590.6,416.8,590.6,341.4z"/>
							</g>
						</g>
					</g>
				</g>
			</g>
		</g>
	</g>
</g>
<path class="st1" d="M590.6,342.1l-56.8-56.8l-18.4,22.9l-56.5-56.5L143.4,384.9L290,531.5h216C557.8,484.8,590.4,417.3,590.6,342.1
	z"/>
<g>
	<path class="st2" d="M334.6,597.4c66.5,0,127.1-25.4,172.6-66.9c-30.4-85.1-96.3-144.1-172.6-144.1s-142.2,59-172.6,144.1
		C207.5,572,268.1,597.4,334.6,597.4L334.6,597.4z"/>
</g>
<g>
	<path class="st3" d="M507.2,530.5c-30.4-85.1-96.3-144.1-172.6-144.1l0,0v211C401.1,597.4,461.7,572,507.2,530.5z"/>
</g>
<g>
	<g>
		<circle class="st4" cx="181.6" cy="331.7" r="65.5"/>
	</g>
	<g>
		<circle class="st5" cx="181.6" cy="331.7" r="35.2"/>
	</g>
	<g>
		
			<ellipse transform="matrix(0.7071 -0.7071 0.7071 0.7071 -91.7326 441.938)" class="st6" cx="487.6" cy="331.7" rx="65.5" ry="65.5"/>
	</g>
	<g>
		
			<ellipse transform="matrix(0.1602 -0.9871 0.9871 0.1602 82.0782 759.8714)" class="st5" cx="487.6" cy="331.7" rx="35.2" ry="35.2"/>
	</g>
</g>
<g>
	<ellipse class="st6" cx="334.6" cy="342.4" rx="162" ry="141.4"/>
</g>
<g>
	<path class="st2" d="M334.6,201.1L334.6,201.1v282.7c89.5,0,162-63.3,162-141.4S424.1,201.1,334.6,201.1L334.6,201.1z"/>
</g>
<g>
	<path class="st7" d="M448.8,304c0-34.7-28.1-62.7-62.7-62.7c-21.3,0-40.1,10.6-51.4,26.8c-11.3-16.2-30.2-26.8-51.4-26.8
		c-34.6,0-62.7,28.1-62.7,62.7c0,27.9,18.3,51.6,43.5,59.7v30.7c0,39,31.6,70.7,70.7,70.7s70.7-31.6,70.7-70.7v-30.7
		C430.5,355.6,448.8,331.9,448.8,304L448.8,304z M334.6,340.7c0.2-0.3-0.2-0.5,0-0.8C334.8,340.2,334.4,340.5,334.6,340.7z"/>
</g>
<g>
	<path class="st4" d="M386,241.3c-21.3,0-40.1,10.6-51.4,26.8l0,0V340l0,0c0.2,0.3-0.2,0.5,0,0.8v124.4c39,0,70.7-31.6,70.7-70.7
		v-30.7c25.2-8.1,43.5-31.8,43.5-59.7C448.8,269.4,420.7,241.3,386,241.3L386,241.3z"/>
</g>
<g>
	<g>
		<circle class="st8" cx="287.4" cy="308.2" r="20.1"/>
	</g>
	<g>
		<circle class="st9" cx="381.8" cy="308.2" r="20.1"/>
	</g>
</g>
<g>
	<g>
		<g>
			<circle class="st9" cx="353" cy="360.6" r="15"/>
		</g>
	</g>
	<g>
		<g>
			<circle class="st8" cx="316.2" cy="360.6" r="15"/>
		</g>
	</g>
</g>
<rect x="78.6" y="639.9" class="st10" width="512" height="152.2"/>
<g class="st11">
	<path d="M187.8,669.9v15h-8.8v-42.7h16.6c3.2,0,6,0.6,8.5,1.8s4.3,2.8,5.6,5c1.3,2.2,2,4.6,2,7.4c0,4.2-1.4,7.5-4.3,9.9
		c-2.9,2.4-6.8,3.6-11.9,3.6H187.8z M187.8,662.7h7.9c2.3,0,4.1-0.5,5.3-1.6c1.2-1.1,1.8-2.7,1.8-4.7c0-2.1-0.6-3.8-1.8-5.1
		s-2.9-2-5.1-2h-8.1V662.7z"/>
	<path d="M233.5,669.3h-7v15.6h-8.8v-42.7h15.8c5,0,8.9,1.1,11.7,3.4c2.7,2.2,4.1,5.4,4.1,9.5c0,2.9-0.6,5.3-1.9,7.3
		s-3.2,3.5-5.7,4.6l9.2,17.4v0.4h-9.4L233.5,669.3z M226.5,662.2h7.1c2.2,0,3.9-0.6,5.1-1.7c1.2-1.1,1.8-2.7,1.8-4.6
		c0-2-0.6-3.6-1.7-4.7s-2.9-1.7-5.3-1.7h-7.1V662.2z"/>
	<path d="M265.4,684.9h-8.8v-42.7h8.8V684.9z"/>
</g>
<g class="st11">
	<path class="st2" d="M285,642.2l11,30.9l10.9-30.9h11.5v42.7h-8.8v-11.7l0.9-20.1L299,684.9h-6l-11.5-31.8l0.9,20.1v11.7h-8.8
		v-42.7H285z"/>
	<path class="st2" d="M351.8,666.4h-16.9v11.4h19.8v7.1h-28.6v-42.7h28.5v7.1h-19.7v10.2h16.9V666.4z"/>
	<path class="st2" d="M369.2,684.9h-8.8v-42.7h8.8V684.9z"/>
	<path class="st2" d="M411.1,679.5c-1.6,1.9-3.8,3.4-6.7,4.4s-6.1,1.6-9.6,1.6c-3.7,0-6.9-0.8-9.7-2.4s-4.9-4-6.4-7
		s-2.3-6.7-2.3-10.8v-2.9c0-4.3,0.7-7.9,2.2-11.1s3.5-5.5,6.2-7.1s5.9-2.5,9.5-2.5c5.1,0,9,1.2,11.9,3.6s4.5,5.9,5.1,10.5h-8.6
		c-0.4-2.4-1.3-4.2-2.6-5.4s-3.2-1.7-5.5-1.7c-3,0-5.3,1.1-6.8,3.4s-2.4,5.6-2.4,10v2.7c0,4.5,0.8,7.9,2.5,10.1s4.2,3.4,7.5,3.4
		c3.3,0,5.7-0.7,7.1-2.1V669h-8v-6.5h16.8V679.5z"/>
	<path class="st2" d="M452.9,684.9h-8.8v-18.3H427v18.3h-8.8v-42.7h8.8v17.3h17.1v-17.3h8.8V684.9z"/>
	<path class="st2" d="M491.9,649.4h-13.1v35.5H470v-35.5h-12.9v-7.1h34.7V649.4z"/>
</g>
</svg>
