<?xml version="1.0" encoding="utf-8"?>
<!-- Generator: Adobe Illustrator 24.3.0, SVG Export Plug-In . SVG Version: 6.00 Build 0)  -->
<svg version="1.1" id="Capa_1" xmlns="http://www.w3.org/2000/svg" xmlns:xlink="http://www.w3.org/1999/xlink" x="0px" y="0px"
	 viewBox="0 0 512 512" style="enable-background:new 0 0 512 512;" xml:space="preserve">
<style type="text/css">
	.st0{fill:#FF00F3;}
	.st1{fill:#AD02AD;}
	.st2{fill:#1C0CCF;}
	.st3{fill:#090684;}
	.st4{fill:#6262E8;}
	.st5{fill:#1AFFD8;}
	.st6{fill:#423EE5;}
	.st7{fill:#9292F4;}
	.st8{fill:#2B3338;}
	.st9{fill:#121416;}
</style>
<g>
	<g>
		<g>
			<g>
				<g>
					<g>
						<g>
							<g>
								<path class="st0" d="M512,256C512,114.6,397.4,0,256,0S0,114.6,0,256c0,75.4,32.6,143.2,84.5,190.1h342.9
									C479.4,399.2,512,331.4,512,256z"/>
							</g>
						</g>
					</g>
				</g>
			</g>
		</g>
	</g>
</g>
<path class="st1" d="M512,256.7l-56.8-56.8l-18.4,22.9l-56.5-56.5L64.8,299.5l146.6,146.6h216C479.2,399.4,511.8,331.9,512,256.7z"
	/>
<g>
	<path class="st2" d="M256,512c66.5,0,127.1-25.4,172.6-66.9C398.2,360,332.3,301,256,301S113.8,360,83.4,445.1
		C128.9,486.6,189.5,512,256,512L256,512z"/>
</g>
<g>
	<path class="st3" d="M428.6,445.1C398.2,360,332.3,301,256,301l0,0v211C322.5,512,383.1,486.6,428.6,445.1z"/>
</g>
<g>
	<g>
		<circle class="st4" cx="103" cy="246.3" r="65.5"/>
	</g>
	<g>
		<circle class="st5" cx="103" cy="246.3" r="35.2"/>
	</g>
	<g>
		<circle class="st6" cx="409" cy="246.3" r="65.5"/>
	</g>
	<g>
		<circle class="st5" cx="409" cy="246.3" r="35.2"/>
	</g>
</g>
<g>
	<ellipse class="st6" cx="256" cy="257" rx="162" ry="141.4"/>
</g>
<g>
	<path class="st2" d="M256,115.7L256,115.7v282.7c89.5,0,162-63.3,162-141.4S345.5,115.7,256,115.7L256,115.7z"/>
</g>
<g>
	<path class="st7" d="M370.2,218.6c0-34.7-28.1-62.7-62.7-62.7c-21.3,0-40.1,10.6-51.4,26.8c-11.3-16.2-30.2-26.8-51.4-26.8
		c-34.6,0-62.7,28.1-62.7,62.7c0,27.9,18.3,51.6,43.5,59.7V309c0,39,31.6,70.7,70.7,70.7s70.7-31.6,70.7-70.7v-30.7
		C351.9,270.2,370.2,246.5,370.2,218.6L370.2,218.6z M256,255.3c0.2-0.3-0.2-0.5,0-0.8C256.2,254.8,255.8,255.1,256,255.3z"/>
</g>
<g>
	<path class="st4" d="M307.4,155.9c-21.3,0-40.1,10.6-51.4,26.8l0,0v71.9l0,0c0.2,0.3-0.2,0.5,0,0.8v124.4c39,0,70.7-31.6,70.7-70.7
		v-30.7c25.2-8.1,43.5-31.8,43.5-59.7C370.2,184,342.1,155.9,307.4,155.9L307.4,155.9z"/>
</g>
<g>
	<g>
		<circle class="st8" cx="208.8" cy="222.8" r="20.1"/>
	</g>
	<g>
		<circle class="st9" cx="303.2" cy="222.8" r="20.1"/>
	</g>
</g>
<g>
	<g>
		<g>
			<circle class="st9" cx="274.4" cy="275.2" r="15"/>
		</g>
	</g>
	<g>
		<g>
			<circle class="st8" cx="237.6" cy="275.2" r="15"/>
		</g>
	</g>
</g>
</svg>
